<?xml version="1.0" encoding="utf-8"?>
<!-- Generator: Adobe Illustrator 18.1.1, SVG Export Plug-In . SVG Version: 6.00 Build 0)  -->
<svg version="1.1" id="Layer_1" xmlns="http://www.w3.org/2000/svg" xmlns:xlink="http://www.w3.org/1999/xlink" x="0px" y="0px"
	 viewBox="0 0 432 432" enable-background="new 0 0 432 432" xml:space="preserve">
<g>
	<g>
		<circle fill="#2F9A41" cx="208.5" cy="191.1" r="36"/>
		<g>
			<path fill="#FFFFFF" d="M197,173.2V166h8.3v7.2H197z M197,216.2V209h8.3v7.2H197z M205.3,180.4v-7.2h8.3v7.2H205.3z M205.3,209
				v-7.2h8.3v7.2H205.3z M213.5,187.5v-7.2h8.3v7.2H213.5z M213.5,201.9v-7.2h8.3v7.2H213.5z M221.8,194.7v-7.2h8.3v7.2H221.8z"/>
		</g>
	</g>
	<g>
		<path fill="#2F9A41" d="M79.4,247.6v2.8c0,0.3-0.2,0.5-0.5,0.5h-8.3v25.4c0,0.3-0.2,0.5-0.5,0.5h-3.2V251h-8.7v-2.8
			c0-0.3,0.2-0.5,0.5-0.5H79.4z"/>
		<path fill="#2F9A41" d="M86.1,254v7.4c0.4-0.5,1.1-0.8,1.9-0.8h12.8v2.8c0,0.3-0.2,0.5-0.5,0.5H86.1v6.7c0,1.6,1.3,3,3,3h12.6
			c0.3,0,0.5,0.2,0.5,0.5v2.8H89c-3.7,0-6.6-3-6.6-6.6v-16c0-3.7,3-6.6,6.6-6.6h13.1v2.8c0,0.3-0.2,0.5-0.5,0.5H89
			C87.4,251,86.1,252.3,86.1,254z"/>
		<path fill="#2F9A41" d="M109.4,262.9v13.5c0,0.3-0.2,0.5-0.5,0.5h-3.2v-27c0-1.2,1-2.3,2.3-2.3h12.2c3.7,0,6.6,2.3,6.6,6.3v3.8
			c0,3.4-2.5,5.3-5.3,6l6.2,13.2h-3.4c-0.3,0-0.6-0.2-0.7-0.5l-5.9-12.5h-5h-1.1C110.6,263.9,109.8,263.6,109.4,262.9L109.4,262.9z
			 M120.2,260.6c1.6,0,3-1.3,3-3V254c0-1.6-1.3-3-3-3h-10.1c-0.4,0-0.7,0.4-0.7,0.7v8.1c0,0.4,0.4,0.7,0.7,0.7H120.2z"/>
		<path fill="#2F9A41" d="M135.2,248.3l9.7,17.8l9.7-17.8c0.2-0.4,0.7-0.6,1.1-0.6h2.7c0.3,0,0.5,0.2,0.5,0.5v28.7h-3.2
			c-0.3,0-0.5-0.2-0.5-0.5v-22.7l-8.1,15.5c-0.2,0.3-0.5,0.5-0.8,0.5h-2.8c-0.3,0-0.6-0.2-0.8-0.5l-8.1-15.5v22.7
			c0,0.3-0.2,0.5-0.5,0.5h-3.2v-28.7c0-0.3,0.2-0.5,0.5-0.5h2.7C134.5,247.7,135,248,135.2,248.3z"/>
		<path fill="#2F9A41" d="M164.4,276.4v-28.7h3.2c0.3,0,0.5,0.2,0.5,0.5v28.7H165C164.7,276.9,164.4,276.7,164.4,276.4z"/>
		<path fill="#2F9A41" d="M193.1,271.6c-0.4-3-0.4-5.5-0.6-8.3v-15.2c0-0.3,0.2-0.5,0.5-0.5h3.2v29.2h-3.4c-0.3,0-0.6-0.2-0.7-0.5
			l-13.3-24.8c-0.2-0.4-0.7-0.6-1.1-0.6c-0.4,0-0.7,0-0.7,0v25.4c0,0.3-0.2,0.5-0.5,0.5h-3.2v-28.7c0-0.3,0.2-0.5,0.5-0.5h4.4
			c1.2,0,2.7,0.9,3.3,2l7.9,15L193.1,271.6z"/>
		<path fill="#2F9A41" d="M227,276.9h-3.2c-0.4,0-0.6-0.2-0.7-0.5l-2.6-7.5h-14.9l-2.6,7.5c-0.1,0.3-0.4,0.5-0.7,0.5h-3.2l9.5-27.1
			c0.5-1.3,1.7-2.2,3.1-2.2h4.6c0.2,0,0.4,0.1,0.5,0.3L227,276.9z M219.3,265.5l-5.1-14.5h-1.9c-0.3,0-0.6,0.2-0.7,0.5l-4.9,14
			H219.3z"/>
		<path fill="#2F9A41" d="M230,270.1v-22c0-0.3,0.2-0.5,0.5-0.5h3.2v22.9c0,1.7,1.4,3,3,3h12.1c0.3,0,0.5,0.2,0.5,0.5v2.8h-12.7
			C233,276.9,230,273.8,230,270.1z"/>
		<path fill="#2F9A41" d="M261,270.1v-22c0-0.3,0.2-0.5,0.5-0.5h3.2v22.9c0,1.7,1.4,3,3,3h12.1c0.3,0,0.5,0.2,0.5,0.5v2.8h-12.7
			C264,276.9,261,273.8,261,270.1z"/>
		<path fill="#2F9A41" d="M309.5,276.9h-3.2c-0.4,0-0.6-0.2-0.7-0.5l-2.6-7.5h-14.9l-2.6,7.5c-0.1,0.3-0.4,0.5-0.7,0.5h-3.2
			l9.5-27.1c0.5-1.3,1.7-2.2,3.1-2.2h4.6c0.2,0,0.4,0.1,0.5,0.3L309.5,276.9z M301.8,265.5l-5.1-14.5h-1.9c-0.3,0-0.6,0.2-0.7,0.5
			l-4.9,14H301.8z"/>
		<path fill="#2F9A41" d="M312.6,274.6v-24.8c0-1.2,1-2.2,2.2-2.2h0.6h11.8c3.7,0,6.6,3,6.6,6.6v3c0,1.9-1.5,4.4-3.6,4.8
			c2.1,0.5,3.6,2.9,3.6,4.8v3.4c0,3.7-3,6.7-6.6,6.7h-12.4C313.6,276.9,312.6,275.9,312.6,274.6z M316.3,260.3h11c1.6,0,3-1.3,3-3
			V254c0-1.6-1.3-3-3-3H317c-0.4,0-0.7,0.3-0.7,0.7V260.3z M330.2,266.6c0-1.6-1.3-3-3-3h-11v9.1c0,0.4,0.3,0.7,0.7,0.7h10.2
			c1.6,0,3-1.4,3-3V266.6z"/>
		<path fill="#2F9A41" d="M352.5,273.5c1.6,0,2.9-1.3,2.9-3V267c0-0.4-0.3-0.8-0.7-0.9l-14.9-5c-1.2-0.4-2.1-1.7-2.1-3v-4.6
			c0-3.7,3-5.9,6.6-5.9H358v2.8c0,0.3-0.2,0.5-0.5,0.5h-13.4c-1.6,0-3,1.1-3,2.7v3.8c0,0.4,0.3,0.9,0.7,1l14.9,4.9
			c1.2,0.4,2,1.8,2,3v4.2c0,3.7-2.8,6.3-6.4,6.3h-14.9V274c0-0.3,0.2-0.5,0.5-0.5H352.5z"/>
	</g>
</g>
</svg>
