<svg width="534" height="57" viewBox="0 0 534 57" fill="none" xmlns="http://www.w3.org/2000/svg">
<path d="M44.8161 0.0963135H11.2104C11.2104 3.20923 12.3011 5.85256 14.4748 8.03387C16.6561 10.2152 19.2994 11.2983 22.4123 11.2983H44.8161V22.5002H11.2104C11.2104 25.6131 12.3011 28.2564 14.4748 30.4378C16.6561 32.6191 19.2994 33.7097 22.4123 33.7097H44.8161C47.929 33.7097 50.5724 32.6191 52.7537 30.4378C54.935 28.2564 56.018 25.6131 56.018 22.5002V11.2983C56.018 8.18535 54.9274 5.54202 52.7537 3.36071C50.5724 1.18697 47.929 0.0963135 44.8161 0.0963135Z" fill="#29ABE2"/>
<path d="M7.93753 3.35995C5.75622 1.17865 3.11291 0.0880127 0 0.0880127V44.9789C0 48.0994 1.09066 50.7503 3.27197 52.9316C5.45327 55.1129 8.09659 56.2035 11.2095 56.2035V22.4994V11.2975C11.2019 8.18457 10.1113 5.54125 7.93753 3.35995Z" fill="#29ABE2"/>
<path d="M112.122 3.7236L97.8225 19.1972L105.503 27.5362L127.906 3.07981C125.786 1.08785 123.264 0.0881042 120.34 0.0881042C117.038 0.0956782 114.296 1.3075 112.122 3.7236V3.7236Z" fill="#29ABE2"/>
<path d="M71.1389 0.0963135C68.2153 0.0963135 65.6932 1.09608 63.5725 3.08046L92.0431 34.2246V56.2043C95.156 56.2043 97.7993 55.106 99.9806 52.9172C102.162 50.7283 103.245 48.0623 103.245 44.9342V29.8166L79.3567 3.73183C77.1223 1.30816 74.3806 0.0963135 71.1389 0.0963135V0.0963135Z" fill="#29ABE2"/>
<path d="M135.836 3.36069C133.654 5.54199 132.564 8.18532 132.564 11.2982H154.967H177.371C180.484 11.2982 183.128 10.2076 185.309 8.03384C187.49 5.85254 188.573 3.20921 188.573 0.0963135H143.766C140.653 0.0963135 138.009 1.18696 135.836 3.36069V3.36069Z" fill="#FFFF00"/>
<path d="M158.238 52.9314C160.42 55.1127 163.063 56.2034 166.176 56.2034V22.522C166.176 19.4015 165.085 16.7506 162.904 14.5693C160.723 12.388 158.079 11.2973 154.966 11.2973V44.9787C154.974 48.0916 156.057 50.7425 158.238 52.9314Z" fill="#FFFF00"/>
<path d="M225.93 11.2982C229.043 11.2982 231.686 10.2076 233.867 8.03384C236.049 5.85254 237.139 3.20921 237.139 0.0963135H203.526C200.413 0.0963135 197.77 1.18697 195.588 3.36827C193.407 5.54958 192.316 8.1929 192.316 11.3058C192.316 14.4187 193.407 17.062 195.588 19.2433C197.77 21.4246 200.413 22.5077 203.526 22.5077V11.3058H225.93V11.2982Z" fill="#FFFF00"/>
<path d="M192.316 33.7005V44.9479C192.316 48.076 193.407 50.7269 195.588 52.9157C197.77 55.1046 200.413 56.1953 203.526 56.1953H225.93C229.043 56.1953 231.686 55.1046 233.867 52.9309C236.049 50.7496 237.139 48.1063 237.139 44.9934H203.526V33.7005H225.93C229.043 33.7005 231.686 32.6099 233.867 30.4286C236.049 28.2473 237.139 25.6039 237.139 22.491H203.526C200.413 22.491 197.77 23.5817 195.588 25.7554C193.407 27.9443 192.316 30.5876 192.316 33.7005V33.7005Z" fill="#FFFF00"/>
<path d="M306.122 3.07981C304.009 1.08786 301.494 0.0881042 298.571 0.0881042C295.276 0.0881042 292.511 1.3075 290.277 3.74632L277.916 15.9101L285.49 24.2264L306.122 3.07981Z" fill="#FFFF00"/>
<path d="M252.236 0.0963135C249.305 0.0963135 246.775 1.10366 244.662 3.11076L290.204 52.6975C292.454 55.0379 295.226 56.2043 298.536 56.2043C301.467 56.2043 303.997 55.2424 306.117 53.311L260.461 3.64851C258.227 1.27785 255.478 0.0963135 252.236 0.0963135Z" fill="#FFFF00"/>
<path d="M244.726 53.3473C246.831 55.2484 249.323 56.2027 252.179 56.2027C255.466 56.2027 258.23 55.0212 260.465 52.6505L272.727 39.3355L265.115 31.0647L244.726 53.3473Z" fill="#FFFF00"/>
<path d="M350.268 0.0963135C348.276 0.0963135 346.405 0.596211 344.655 1.60355L363.34 33.8005H339.823C339.823 36.9134 340.914 39.5567 343.088 41.738C345.269 43.9193 347.912 45.0024 351.018 45.0024H369.869L373.043 50.5238C375.224 54.3108 378.496 56.2119 382.859 56.2119C384.79 56.2119 386.63 55.6817 388.372 54.6289L359.993 5.69349C357.811 1.95952 354.57 0.0963135 350.268 0.0963135Z" fill="#FFFF00"/>
<path d="M345.149 11.4955C340.854 11.4955 337.613 13.3587 335.439 17.0927L313.686 54.7201C315.428 55.7123 317.299 56.2122 319.291 56.2122C323.586 56.2122 326.827 54.349 329.001 50.6151L350.753 12.9876C349.011 11.9878 347.141 11.4955 345.149 11.4955V11.4955Z" fill="#FFFF00"/>
<path d="M438.783 11.2982C441.896 11.2982 444.539 10.2076 446.721 8.03384C448.902 5.85254 449.985 3.20921 449.985 0.0963135H405.177C402.064 0.0963135 399.421 1.18697 397.24 3.36827C395.058 5.54958 393.968 8.1929 393.968 11.3058C393.968 14.4187 395.058 17.062 397.24 19.2433C399.421 21.4246 402.064 22.5077 405.177 22.5077V11.3058H438.783V11.2982Z" fill="#FFFF00"/>
<path d="M438.783 22.4994H405.17H393.968C393.968 25.6123 395.058 28.2556 397.24 30.4369C399.421 32.6182 402.064 33.7089 405.177 33.7089H438.79V45.0017L393.975 44.9107C393.975 48.0464 395.066 50.72 397.247 52.9164C399.428 55.1129 402.072 56.2111 405.185 56.2111H438.798C441.911 56.2111 444.554 55.1205 446.735 52.9467C448.917 50.7654 450 48.1221 450 45.0092V33.7164C450 30.6035 448.909 27.9602 446.735 25.7789C444.539 23.59 441.896 22.4994 438.783 22.4994V22.4994Z" fill="#FFFF00"/>
<path d="M503.158 4.92336C503.158 6.29041 502.675 7.45191 501.719 8.40782C500.763 9.36373 499.601 9.84685 498.234 9.84685V4.92336H483.474C482.107 4.92336 480.946 4.4403 479.99 3.4844C479.034 2.52849 478.551 1.36699 478.551 -6.10352e-05H498.234C499.601 -6.10352e-05 500.763 0.482995 501.719 1.4389C502.675 2.39481 503.158 3.55631 503.158 4.92336ZM503.158 24.648H483.474C482.107 24.648 480.946 24.1752 479.99 23.209C479.034 22.2531 478.551 21.0916 478.551 19.7246V14.76C478.551 13.3929 479.034 12.2314 479.99 11.2755C480.946 10.3196 482.107 9.83656 483.474 9.83656H498.234C498.234 11.2036 497.751 12.365 496.795 13.321C495.839 14.2769 494.678 14.76 493.311 14.76H483.474V19.7246L498.234 19.6834C499.601 19.6834 500.763 20.1665 501.719 21.1327C502.675 22.0989 503.158 23.2706 503.158 24.648Z" fill="#29ABE2"/>
<path d="M509.916 1.43891C510.872 0.482996 512.034 -6.10352e-05 513.401 -6.10352e-05H528.161C529.528 -6.10352e-05 530.689 0.482996 531.645 1.43891C532.601 2.39482 533.084 3.55631 533.084 4.92337V19.6834C531.717 19.6834 530.556 19.2004 529.6 18.2445C528.644 17.2886 528.161 16.1271 528.161 14.76V4.92337H508.477C508.477 3.55631 508.96 2.39482 509.916 1.43891ZM508.477 4.92337C509.844 4.92337 511.006 5.40649 511.962 6.3624C512.918 7.31831 513.401 8.47981 513.401 9.84686V19.6834H533.084C533.084 21.0505 532.601 22.212 531.645 23.1679C530.689 24.1238 529.528 24.6069 528.161 24.6069H513.401C512.034 24.6069 510.872 24.1238 509.916 23.1679C508.96 22.212 508.477 21.0505 508.477 19.6834V4.92337Z" fill="white"/>
<path d="M502.607 36.4055C502.607 37.7726 502.124 38.9341 501.168 39.89C500.212 40.8459 499.05 41.3289 497.683 41.3289V36.4055H482.923C481.556 36.4055 480.395 35.9224 479.439 34.9665C478.483 34.0106 478 32.8491 478 31.4821H497.683C499.05 31.4821 500.212 31.9651 501.168 32.9211C502.124 33.877 502.607 35.0385 502.607 36.4055ZM502.607 56.1199H482.923C481.556 56.1199 480.395 55.647 479.439 54.6809C478.483 53.7249 478 52.5635 478 51.1965V46.2319C478 44.8648 478.483 43.7033 479.439 42.7474C480.395 41.7915 481.556 41.3084 482.923 41.3084H497.683C497.683 42.6755 497.2 43.8369 496.244 44.7928C495.289 45.7487 494.127 46.2319 492.76 46.2319H482.923V51.1965L497.683 51.1553C499.05 51.1553 500.212 51.6384 501.168 52.6046C502.124 53.5708 502.607 54.7426 502.607 56.1199Z" fill="white"/>
<path d="M527.61 31.4821C528.977 31.4821 530.139 31.9651 531.095 32.9211C532.051 33.877 532.534 35.0385 532.534 36.4055C532.534 37.7726 532.051 38.9341 531.095 39.89C530.139 40.8459 528.977 41.3289 527.61 41.3289V36.4055H512.85C511.483 36.4055 510.322 35.9224 509.366 34.9665C508.41 34.0106 507.927 32.8491 507.927 31.4821H527.61ZM527.61 51.1656V46.2422H512.85C511.483 46.2422 510.322 45.759 509.366 44.8031C508.41 43.8472 507.927 42.6857 507.927 41.3187H527.61C528.977 41.3187 530.139 41.8018 531.095 42.7577C532.051 43.7136 532.534 44.8751 532.534 46.2422V51.1656C532.534 52.5326 532.051 53.6941 531.095 54.65C530.139 55.606 528.977 56.0891 527.61 56.0891H512.85C511.483 56.0891 510.322 55.606 509.366 54.65C508.41 53.6941 507.927 52.5326 507.927 51.1656H527.61Z" fill="#FFFF00"/>
</svg>
