<svg width="600" height="500" viewBox="0 0 600 500" fill="none" xmlns="http://www.w3.org/2000/svg">
<path d="M38 250C38 385.31 147.69 495 283 495C418.31 495 528 385.31 528 250C528 114.69 418.31 5 283 5C147.69 5 38 114.69 38 250Z" fill="black"/>
<path d="M101.816 222.096H68.2104C68.2104 225.209 69.3011 227.853 71.4748 230.034C73.6561 232.215 76.2994 233.298 79.4123 233.298H101.816V244.5H68.2104C68.2104 247.613 69.3011 250.256 71.4748 252.438C73.6561 254.619 76.2994 255.71 79.4123 255.71H101.816C104.929 255.71 107.572 254.619 109.754 252.438C111.935 250.256 113.018 247.613 113.018 244.5V233.298C113.018 230.185 111.927 227.542 109.754 225.361C107.572 223.187 104.929 222.096 101.816 222.096Z" fill="#29ABE2"/>
<path d="M64.9375 225.36C62.7562 223.179 60.1129 222.088 57 222.088V266.979C57 270.099 58.0907 272.75 60.272 274.932C62.4533 277.113 65.0966 278.204 68.2095 278.204V244.499V233.297C68.2019 230.185 67.1113 227.541 64.9375 225.36Z" fill="#29ABE2"/>
<path d="M169.122 225.724L154.822 241.197L162.502 249.536L184.906 225.08C182.786 223.088 180.264 222.088 177.34 222.088C174.038 222.096 171.296 223.307 169.122 225.724V225.724Z" fill="#29ABE2"/>
<path d="M128.139 222.096C125.215 222.096 122.693 223.096 120.572 225.08L149.043 256.225V278.204C152.156 278.204 154.799 277.106 156.981 274.917C159.162 272.728 160.245 270.062 160.245 266.934V251.817L136.357 225.732C134.122 223.308 131.381 222.096 128.139 222.096V222.096Z" fill="#29ABE2"/>
<path d="M192.836 225.361C190.654 227.542 189.564 230.185 189.564 233.298H211.967H234.371C237.484 233.298 240.128 232.208 242.309 230.034C244.49 227.853 245.573 225.209 245.573 222.096H200.766C197.653 222.096 195.009 223.187 192.836 225.361V225.361Z" fill="#FFFF00"/>
<path d="M215.238 274.931C217.42 277.113 220.063 278.203 223.176 278.203V244.522C223.176 241.401 222.085 238.751 219.904 236.569C217.723 234.388 215.079 233.297 211.966 233.297V266.979C211.974 270.092 213.057 272.743 215.238 274.931Z" fill="#FFFF00"/>
<path d="M282.93 233.298C286.043 233.298 288.686 232.208 290.867 230.034C293.049 227.853 294.139 225.209 294.139 222.096H260.526C257.413 222.096 254.77 223.187 252.588 225.368C250.407 227.55 249.316 230.193 249.316 233.306C249.316 236.419 250.407 239.062 252.588 241.243C254.77 243.425 257.413 244.508 260.526 244.508V233.306H282.93V233.298Z" fill="#FFFF00"/>
<path d="M249.316 255.701V266.948C249.316 270.076 250.407 272.727 252.588 274.916C254.77 277.105 257.413 278.195 260.526 278.195H282.93C286.043 278.195 288.686 277.105 290.867 274.931C293.049 272.75 294.139 270.106 294.139 266.993H260.526V255.701H282.93C286.043 255.701 288.686 254.61 290.867 252.429C293.049 250.247 294.139 247.604 294.139 244.491H260.526C257.413 244.491 254.77 245.582 252.588 247.755C250.407 249.944 249.316 252.588 249.316 255.701V255.701Z" fill="#FFFF00"/>
<path d="M363.122 225.08C361.009 223.088 358.494 222.088 355.571 222.088C352.276 222.088 349.511 223.307 347.277 225.746L334.916 237.91L342.49 246.226L363.122 225.08Z" fill="#FFFF00"/>
<path d="M309.236 222.096C306.305 222.096 303.775 223.104 301.662 225.111L347.204 274.698C349.454 277.038 352.226 278.204 355.536 278.204C358.467 278.204 360.997 277.242 363.117 275.311L317.461 225.648C315.227 223.278 312.478 222.096 309.236 222.096Z" fill="#FFFF00"/>
<path d="M301.726 275.347C303.831 277.248 306.323 278.203 309.179 278.203C312.466 278.203 315.23 277.021 317.465 274.651L329.727 261.335L322.115 253.065L301.726 275.347Z" fill="#FFFF00"/>
<path d="M407.268 222.096C405.276 222.096 403.405 222.596 401.655 223.604L420.34 255.8H396.823C396.823 258.913 397.914 261.557 400.088 263.738C402.269 265.919 404.912 267.002 408.018 267.002H426.869L430.043 272.524C432.224 276.311 435.496 278.212 439.859 278.212C441.79 278.212 443.63 277.682 445.372 276.629L416.993 227.693C414.811 223.96 411.57 222.096 407.268 222.096Z" fill="#FFFF00"/>
<path d="M402.149 233.496C397.854 233.496 394.613 235.359 392.439 239.093L370.686 276.72C372.428 277.712 374.299 278.212 376.291 278.212C380.586 278.212 383.827 276.349 386.001 272.615L407.753 234.988C406.011 233.988 404.141 233.496 402.149 233.496V233.496Z" fill="#FFFF00"/>
<path d="M495.783 233.298C498.896 233.298 501.539 232.208 503.721 230.034C505.902 227.853 506.985 225.209 506.985 222.096H462.177C459.064 222.096 456.421 223.187 454.24 225.368C452.058 227.55 450.968 230.193 450.968 233.306C450.968 236.419 452.058 239.062 454.24 241.243C456.421 243.425 459.064 244.508 462.177 244.508V233.306H495.783V233.298Z" fill="#FFFF00"/>
<path d="M495.783 244.499H462.17H450.968C450.968 247.612 452.058 250.256 454.24 252.437C456.421 254.618 459.064 255.709 462.177 255.709H495.79V267.002L450.975 266.911C450.975 270.046 452.066 272.72 454.247 274.916C456.429 277.113 459.072 278.211 462.185 278.211H495.798C498.911 278.211 501.554 277.12 503.735 274.947C505.917 272.765 507 270.122 507 267.009V255.716C507 252.604 505.909 249.96 503.735 247.779C501.539 245.59 498.896 244.499 495.783 244.499V244.499Z" fill="#FFFF00"/>
<path d="M426.172 285.084C426.156 286.591 425.823 287.621 424.854 288.598C422.816 290.636 419.65 292.166 415.984 293.93C411.084 296.294 404.987 299.225 398.935 304.701C397.572 305.935 396.398 307.018 395.353 307.988C388.711 314.138 387.128 315.592 369.2 324.355C352.522 332.505 349.386 343.563 346.622 353.325C345.645 356.772 344.728 360.028 343.259 363.066C339.237 371.442 342.305 382.5 344.766 391.385C346.145 396.368 347.576 401.519 347.084 403.798C344.266 405.601 328.172 398.36 320.431 394.884C316.424 393.081 312.637 391.385 309.29 390.052C300.746 386.636 300.383 383.121 299.739 376.752C299.428 373.715 299.08 370.268 297.77 366.36C295.967 360.945 292.907 357.832 289.363 354.219C284.387 349.152 278.199 342.851 271.685 326.43C260.71 298.748 241.306 292.582 226.196 292.582C225.491 292.582 224.787 292.597 224.105 292.62C214.145 292.991 212.835 300.49 211.881 305.965C211.199 309.881 210.548 313.577 207.647 315.834C206.927 316.395 206.397 316.766 206.019 317.008C204.564 314.577 201.807 310.298 192.264 308.851C184.864 307.73 178.351 299.74 172.799 285.077H166.316C170.981 298.066 178.813 312.896 191.363 314.797C198.323 315.85 199.846 318.402 200.952 320.258C201.648 321.424 202.595 323.014 204.617 323.393C206.7 323.787 208.662 322.658 211.335 320.576C216.069 316.895 217.031 311.404 217.804 306.996C218.887 300.815 219.629 298.801 224.332 298.626C243.873 297.922 257.915 308.003 266.103 328.642C273.063 346.183 280.009 353.257 285.076 358.423C288.34 361.748 290.703 364.156 292.067 368.254C293.157 371.533 293.46 374.495 293.756 377.35C294.467 384.295 295.134 390.854 307.063 395.618C310.29 396.914 314.024 398.587 317.97 400.36C330.845 406.139 339.934 409.986 345.819 409.986C347.311 409.986 348.606 409.736 349.697 409.206C351.31 408.426 352.393 407.085 352.825 405.343C353.802 401.428 352.31 396.027 350.568 389.771C348.258 381.44 345.645 372.003 348.69 365.663C350.371 362.149 351.409 358.491 352.416 354.954C355.075 345.577 357.582 336.716 371.851 329.748C390.581 320.598 392.46 318.864 399.451 312.388C400.488 311.434 401.639 310.366 402.988 309.147C408.388 304.261 413.818 301.648 418.605 299.338C422.763 297.339 426.353 295.604 429.118 292.847C431.541 290.424 432.163 287.773 432.185 285.084H426.172Z" fill="#29ABE2"/>
<path d="M422.446 174.336C420.992 174.155 386.584 169.875 364.074 170.39C359.469 170.489 355.28 170.746 351.236 170.989C335.883 171.92 325.734 172.541 317.289 163.051C307.208 151.713 290.227 148.161 283.638 147.168L282.653 91.3404H203.543C203.293 91.5828 203.036 91.8176 202.755 92.0296C202.218 92.4462 201.657 92.8325 201.082 93.196L201.513 208.654H207.527L207.11 97.3542H276.746L277.723 152.584L280.419 152.826C280.631 152.849 301.975 154.864 312.805 167.05C323.189 178.729 335.732 177.972 351.614 176.995C355.606 176.752 359.734 176.502 364.218 176.404C382.789 175.995 410.426 178.994 419.046 179.994L418.743 208.669H424.756L425.12 174.677L422.446 174.336Z" fill="#FFFF00"/>
<path d="M207.522 202.907V208.648H131.669L135.675 202.907H207.522Z" fill="#FFFF00"/>
<path d="M285.378 309.712L280.386 318.343C279.887 319.196 279.141 319.625 278.159 319.625C277.703 319.625 277.274 319.513 276.876 319.282L281.862 310.651C282.362 309.798 283.108 309.369 284.09 309.369C284.551 309.369 284.981 309.481 285.378 309.712ZM294.003 319.26C293.6 319.502 293.182 319.625 292.736 319.625C291.738 319.625 290.987 319.191 290.487 318.321L289.757 317.054H285.437C284.723 317.054 284.117 316.808 283.617 316.303C283.118 315.804 282.866 315.197 282.866 314.484H288.26L283.977 307.098C284.38 306.868 284.809 306.755 285.265 306.755C286.253 306.755 286.993 307.184 287.493 308.038L294.003 319.26Z" fill="white"/>
<path d="M309.201 317.054C309.201 317.768 308.948 318.374 308.449 318.873C307.95 319.372 307.343 319.625 306.63 319.625H298.922C298.209 319.625 297.602 319.378 297.103 318.873C296.604 318.374 296.352 317.768 296.352 317.054V306.754C297.065 306.754 297.672 307.006 298.171 307.506C298.67 308.005 298.922 308.611 298.922 309.33V317.054H309.201ZM309.201 314.477C309.201 315.191 308.948 315.803 308.449 316.302C307.95 316.801 307.343 317.054 306.63 317.054V309.33C306.63 308.617 306.882 308.005 307.381 307.506C307.88 307.006 308.487 306.754 309.201 306.754V314.477Z" fill="white"/>
<path d="M324.832 306.754C324.832 307.468 324.58 308.074 324.081 308.574C323.582 309.073 322.975 309.325 322.261 309.325H314.554V311.896C313.84 311.896 313.234 311.644 312.735 311.144C312.236 310.645 311.983 310.039 311.983 309.325C311.983 308.611 312.236 308.005 312.735 307.506C313.234 307.006 313.84 306.754 314.554 306.754H324.832ZM324.832 317.054C324.832 317.768 324.58 318.374 324.081 318.873C323.582 319.372 322.975 319.625 322.261 319.625H314.554C313.84 319.625 313.234 319.372 312.735 318.868C312.236 318.363 311.983 317.751 311.983 317.032L322.261 317.054V314.461H314.554C313.84 314.461 313.234 314.209 312.735 313.71C312.236 313.211 311.983 312.604 311.983 311.891H322.261C322.975 311.891 323.582 312.143 324.081 312.642C324.58 313.141 324.832 313.748 324.832 314.461V317.054Z" fill="white"/>
<path d="M340.465 306.754C340.465 307.468 340.213 308.074 339.713 308.574C339.214 309.073 338.608 309.325 337.894 309.325H327.616C327.616 308.611 327.868 308.005 328.367 307.506C328.866 307.006 329.473 306.754 330.187 306.754H340.465ZM335.323 319.619C334.609 319.619 334.003 319.367 333.504 318.868C333.004 318.369 332.752 317.757 332.752 317.043V309.32C333.466 309.32 334.073 309.572 334.572 310.071C335.071 310.57 335.323 311.177 335.323 311.896V319.619Z" fill="white"/>
<path d="M344.951 319.619C344.237 319.619 343.631 319.366 343.131 318.867C342.632 318.368 342.38 317.756 342.38 317.043V306.748C343.094 306.748 343.7 307.001 344.199 307.5C344.699 307.999 344.951 308.611 344.951 309.325V319.619Z" fill="white"/>
<path d="M350.316 317.048C350.316 317.762 350.063 318.373 349.564 318.873C349.065 319.372 348.459 319.624 347.745 319.624V312.738C347.745 312.024 347.997 311.412 348.496 310.913C348.995 310.414 349.602 310.162 350.316 310.162V317.048ZM358.023 314.139C357.524 314.638 356.917 314.89 356.203 314.89C355.489 314.89 354.883 314.638 354.384 314.139L347.745 307.5C348.244 307.001 348.85 306.754 349.564 306.754C350.278 306.754 350.884 307.006 351.384 307.505L358.023 314.139ZM360.588 319.619C359.874 319.619 359.268 319.366 358.769 318.867C358.27 318.368 358.017 317.756 358.017 317.042V306.748C358.731 306.748 359.338 307.001 359.837 307.5C360.336 307.999 360.588 308.611 360.588 309.325V319.619Z" fill="white"/>
<path d="M312.009 298.411C311.295 298.411 310.689 298.159 310.19 297.66C309.69 297.16 309.438 296.549 309.438 295.835V285.541C310.152 285.541 310.758 285.793 311.258 286.292C311.757 286.791 312.009 287.403 312.009 288.117V298.411Z" fill="white"/>
<path d="M317.363 295.84C317.363 296.554 317.111 297.166 316.612 297.665C316.112 298.164 315.506 298.416 314.792 298.416V291.53C314.792 290.817 315.044 290.205 315.544 289.706C316.043 289.207 316.649 288.954 317.363 288.954V295.84ZM325.07 292.931C324.571 293.43 323.965 293.683 323.251 293.683C322.537 293.683 321.93 293.43 321.431 292.931L314.792 286.292C315.291 285.793 315.898 285.546 316.612 285.546C317.325 285.546 317.932 285.798 318.431 286.298L325.07 292.931ZM327.636 298.411C326.922 298.411 326.315 298.159 325.816 297.66C325.317 297.161 325.065 296.549 325.065 295.835V285.541C325.779 285.541 326.385 285.793 326.884 286.292C327.383 286.791 327.636 287.403 327.636 288.117V298.411Z" fill="white"/>
<path d="M223.462 345.218C223.462 346.225 223.106 347.081 222.402 347.785C221.698 348.49 220.842 348.846 219.834 348.846V345.218H208.958C207.951 345.218 207.095 344.862 206.391 344.158C205.686 343.453 205.33 342.597 205.33 341.59H219.834C220.842 341.59 221.698 341.946 222.402 342.65C223.106 343.355 223.462 344.211 223.462 345.218ZM223.462 359.752H208.958C207.951 359.752 207.095 359.404 206.391 358.692C205.686 357.988 205.33 357.132 205.33 356.124V352.466C205.33 351.459 205.686 350.603 206.391 349.899C207.095 349.194 207.951 348.838 208.958 348.838H219.834C219.834 349.846 219.478 350.701 218.774 351.406C218.07 352.11 217.214 352.466 216.207 352.466H208.958V356.124L219.834 356.094C220.842 356.094 221.698 356.45 222.402 357.162C223.106 357.874 223.462 358.737 223.462 359.752Z" fill="#29ABE2"/>
<path d="M228.443 342.65C229.147 341.946 230.003 341.59 231.01 341.59H241.887C242.894 341.59 243.75 341.946 244.454 342.65C245.158 343.355 245.514 344.211 245.514 345.218V356.094C244.507 356.094 243.651 355.738 242.947 355.034C242.243 354.329 241.887 353.474 241.887 352.466V345.218H227.382C227.382 344.211 227.738 343.355 228.443 342.65ZM227.382 345.218C228.39 345.218 229.246 345.574 229.95 346.278C230.654 346.983 231.01 347.838 231.01 348.846V356.094H245.514C245.514 357.101 245.158 357.957 244.454 358.662C243.75 359.366 242.894 359.722 241.887 359.722H231.01C230.003 359.722 229.147 359.366 228.443 358.662C227.738 357.957 227.382 357.101 227.382 356.094V345.218Z" fill="white"/>
<path d="M223.057 368.416C223.057 369.423 222.701 370.279 221.996 370.984C221.292 371.688 220.436 372.044 219.429 372.044V368.416H208.552C207.545 368.416 206.689 368.06 205.985 367.356C205.28 366.651 204.925 365.795 204.925 364.788H219.429C220.436 364.788 221.292 365.144 221.996 365.848C222.701 366.553 223.057 367.409 223.057 368.416ZM223.057 382.943H208.552C207.545 382.943 206.689 382.594 205.985 381.883C205.28 381.178 204.925 380.322 204.925 379.315V375.657C204.925 374.649 205.28 373.794 205.985 373.089C206.689 372.385 207.545 372.029 208.552 372.029H219.429C219.429 373.036 219.073 373.892 218.368 374.596C217.664 375.301 216.808 375.657 215.801 375.657H208.552V379.315L219.429 379.285C220.436 379.285 221.292 379.641 221.996 380.353C222.701 381.065 223.057 381.928 223.057 382.943Z" fill="white"/>
<path d="M241.481 364.788C242.488 364.788 243.344 365.144 244.049 365.848C244.753 366.553 245.109 367.409 245.109 368.416C245.109 369.423 244.753 370.279 244.049 370.984C243.344 371.688 242.488 372.044 241.481 372.044V368.416H230.605C229.597 368.416 228.742 368.06 228.037 367.356C227.333 366.651 226.977 365.795 226.977 364.788H241.481ZM241.481 379.292V375.664H230.605C229.597 375.664 228.742 375.308 228.037 374.604C227.333 373.9 226.977 373.044 226.977 372.036H241.481C242.488 372.036 243.344 372.392 244.049 373.097C244.753 373.801 245.109 374.657 245.109 375.664V379.292C245.109 380.3 244.753 381.155 244.049 381.86C243.344 382.564 242.488 382.92 241.481 382.92H230.605C229.597 382.92 228.742 382.564 228.037 381.86C227.333 381.155 226.977 380.3 226.977 379.292H241.481Z" fill="#FFFF00"/>
<path d="M91.2093 200.473C113.318 115.268 190.739 52.1775 282.589 52.1775C374.438 52.1775 451.851 115.268 473.968 200.473H476.223C454.057 114.048 375.648 50 282.589 50C189.529 50 111.12 114.056 88.954 200.473H91.2093Z" fill="#29ABE2"/>
<path d="M473.973 300.263C451.66 385.057 374.501 447.768 282.996 447.768C191.49 447.768 114.323 385.057 92.0096 300.263H89.757C112.119 386.269 190.273 449.943 282.996 449.943C375.71 449.943 453.863 386.269 476.234 300.263H473.973Z" fill="#FFFF00"/>
<path d="M104.785 199.801C126.757 122.165 198.201 65.0958 282.777 65.0958C367.353 65.0958 438.797 122.165 460.77 199.801H467.587C445.441 118.514 370.98 58.5665 282.777 58.5665C194.575 58.5665 120.113 118.506 97.9678 199.801H104.785Z" fill="white"/>
<path d="M460.759 300.369C438.787 378.005 367.343 435.075 282.767 435.075C198.191 435.075 126.747 378.005 104.775 300.369H97.9575C120.103 381.656 194.564 441.604 282.767 441.604C370.97 441.604 445.431 381.656 467.576 300.369H460.759Z" fill="white"/>
</svg>
